<svg height="491pt" viewBox="0 -7 491.20119 491" width="491pt" xmlns="http://www.w3.org/2000/svg"><path d="m467.195312 169.121094h-146.039062c-6.925781-.007813-13.058594-4.46875-15.199219-11.054688l-45.160156-138.890625c-2.160156-6.566406-8.289063-11.003906-15.199219-11.003906-6.914062 0-13.042968 4.4375-15.199218 11.003906l-45.144532 138.890625c-2.144531 6.589844-8.285156 11.054688-15.21875 11.054688h-146.039062c-6.929688 0-13.074219 4.460937-15.21875 11.054687-2.144532 6.589844.203125 13.8125 5.8125 17.890625l118.144531 85.839844c5.605469 4.070312 7.957031 11.292969 5.8125 17.886719l-53.125 146.878906c-2.144531 6.59375.203125 13.816406 5.8125 17.890625s13.203125 4.074219 18.808594 0l126.144531-93.832031c5.609375-4.078125 13.207031-4.078125 18.816406 0l126.136719 93.832031c5.609375 4.074219 13.203125 4.074219 18.8125 0s7.953125-11.296875 5.8125-17.890625l-53.128906-146.878906c-2.140625-6.59375.207031-13.816407 5.816406-17.886719l118.144531-85.839844c5.605469-4.074218 7.953125-11.296875 5.8125-17.886718-2.140625-6.59375-8.28125-11.058594-15.214844-11.058594zm0 0" fill="#9bc9ff"/><path d="m390.546875 477.703125c-5.078125-.023437-10.019531-1.660156-14.109375-4.671875l-126.207031-93.886719c-2.804688-1.988281-6.5625-1.964843-9.335938.054688l-126.074219 93.777343c-8.402343 6.152344-19.8125 6.1875-28.25.082032-8.4375-6.105469-11.976562-16.953125-8.757812-26.859375l53.222656-147.132813c.957032-3.242187-.246094-6.730468-2.992187-8.699218l-118.148438-85.832032c-8.414062-6.109375-11.933593-16.941406-8.71875-26.828125 3.210938-9.890625 12.425781-16.585937 22.820313-16.585937h146.039062c3.46875 0 6.539063-2.230469 7.609375-5.527344l45.121094-138.890625c3.207031-9.898437 12.425781-16.601563 22.832031-16.601563s19.625 6.703126 22.832032 16.601563l45.117187 138.890625c1.074219 3.296875 4.144531 5.527344 7.609375 5.527344h146.039062c10.398438-.003906 19.617188 6.691406 22.832032 16.582031 3.210937 9.886719-.308594 20.722656-8.71875 26.832031l-118.160156 85.839844c-2.800782 2.039062-3.972657 5.644531-2.902344 8.9375l53.046875 146.609375c3.449219 9.941406-.066407 20.972656-8.632813 27.085937-4.085937 3.019532-9.027344 4.664063-14.113281 4.695313zm-144.949219-116.039063c5.0625 0 9.996094 1.609376 14.085938 4.59375l126.234375 93.886719c2.8125 2 6.589843 1.96875 9.371093-.074219 2.78125-2.046874 3.9375-5.644531 2.867188-8.925781l-53.046875-146.632812c-3.351563-9.945313.148437-20.910157 8.640625-27.078125l118.144531-85.839844c2.800781-2.039062 3.972657-5.648438 2.90625-8.941406-1.070312-3.296875-4.140625-5.527344-7.605469-5.53125h-146.039062c-10.402344.015625-19.625-6.683594-22.824219-16.585938l-45.128906-138.886718c-1.078125-3.28125-4.144531-5.5-7.597656-5.5-3.457031 0-6.523438 2.21875-7.601563 5.5l-45.144531 138.886718c-3.195313 9.902344-12.421875 16.601563-22.824219 16.585938h-146.039062c-3.464844 0-6.539063 2.230468-7.609375 5.527344-1.070313 3.296874.101562 6.90625 2.90625 8.945312l118.144531 85.839844c8.429688 6.097656 11.953125 16.941406 8.71875 26.832031l-53.207031 147.136719c-1.039063 3.238281.175781 6.777344 2.992187 8.695312 2.777344 2.117188 6.628906 2.117188 9.40625 0l126.074219-93.792968c4.117187-3.003907 9.078125-4.628907 14.175781-4.640626zm0 0" fill="#1e81ce"/></svg>